<?xml version="1.0" standalone="no"?><!DOCTYPE svg PUBLIC "-//W3C//DTD SVG 1.1//EN" "http://www.w3.org/Graphics/SVG/1.1/DTD/svg11.dtd"><svg t="1698543719159" class="icon" viewBox="0 0 1024 1024" version="1.1" xmlns="http://www.w3.org/2000/svg" p-id="6164" id="mx_n_1698543719161" xmlns:xlink="http://www.w3.org/1999/xlink" width="150" height="150"><path d="M512 395.2m-272.4 0a272.4 272.4 0 1 0 544.8 0 272.4 272.4 0 1 0-544.8 0Z" fill="#59C3F0" p-id="6165" data-spm-anchor-id="a313x.search_index.0.i5.72543a81bb0J9a" class="selected"></path><path d="M512 122.8c-9.6 0-19 0.4-28.2 1.4 137.2 14 244.2 130 244.2 271S621 652 483.8 666.2c9.2 1 18.6 1.4 28.2 1.4 150.4 0 272.4-122 272.4-272.4 0-150.4-122-272.4-272.4-272.4z" fill="#21A0D6" p-id="6166"></path><path d="M512.6 667.6c9.6 0 19-0.4 28.2-1.4-137.2-14-244.2-130-244.2-271s106.8-256.8 244-271c-9.2-1-18.6-1.4-28.2-1.4-150.4 0-272.4 122-272.4 272.4s122 272.4 272.6 272.4z" fill="#96DCFA" p-id="6167"></path><path d="M512 677.4c-155.6 0-282.2-126.6-282.2-282.2S356.4 113 512 113s282.2 126.6 282.2 282.2S667.6 677.4 512 677.4z m0-544.8c-144.8 0-262.6 117.8-262.6 262.6S367.2 658 512 658s262.6-117.8 262.6-262.6c0-145-117.8-262.8-262.6-262.8z" fill="#402943" p-id="6168"></path><path d="M336.8 531.4m-19.4 0a19.4 19.4 0 1 0 38.8 0 19.4 19.4 0 1 0-38.8 0Z" fill="#96DCFA" p-id="6169"></path><path d="M336.8 555.8c-13.4 0-24.4-11-24.4-24.4 0-13.4 11-24.4 24.4-24.4 13.4 0 24.4 11 24.4 24.4 0 13.4-11 24.4-24.4 24.4z m0-39c-8 0-14.6 6.6-14.6 14.6s6.6 14.6 14.6 14.6 14.6-6.6 14.6-14.6-6.4-14.6-14.6-14.6z" fill="#402943" p-id="6170"></path><path d="M414.8 220.2m-19.4 0a19.4 19.4 0 1 0 38.8 0 19.4 19.4 0 1 0-38.8 0Z" fill="#96DCFA" p-id="6171"></path><path d="M414.8 244.4c-13.4 0-24.4-11-24.4-24.4 0-13.4 11-24.4 24.4-24.4 13.4 0 24.4 11 24.4 24.4-0.2 13.6-11 24.4-24.4 24.4z m0-38.8c-8 0-14.6 6.6-14.6 14.6s6.6 14.6 14.6 14.6 14.6-6.6 14.6-14.6c0-8.2-6.6-14.6-14.6-14.6z" fill="#402943" p-id="6172"></path><path d="M687.2 259m-29.2 0a29.2 29.2 0 1 0 58.4 0 29.2 29.2 0 1 0-58.4 0Z" fill="#96DCFA" p-id="6173" data-spm-anchor-id="a313x.search_index.0.i6.72543a81bb0J9a" class="selected"></path><path d="M687.2 293c-18.8 0-34-15.2-34-34s15.2-34 34-34 34 15.2 34 34-15.2 34-34 34z m0-58.2c-13.4 0-24.4 11-24.4 24.4 0 13.4 11 24.4 24.4 24.4 13.4 0 24.4-11 24.4-24.4-0.2-13.6-11-24.4-24.4-24.4z" fill="#402943" p-id="6174"></path><path d="M298 366c-5.4 0-9.8-4.4-9.8-9.8v-39c0-5.4 4.4-9.8 9.8-9.8s9.8 4.4 9.8 9.8v39c-0.2 5.6-4.4 9.8-9.8 9.8z" fill="#FFFFFF" p-id="6175"></path><path d="M317.4 346.6h-39c-5.4 0-9.8-4.4-9.8-9.8s4.4-9.8 9.8-9.8h39c5.4 0 9.8 4.4 9.8 9.8s-4.4 9.8-9.8 9.8z" fill="#FFFFFF" p-id="6176"></path><path d="M336.8 443.8c-5.4 0-9.8-4.4-9.8-9.8v-39c0-5.4 4.4-9.8 9.8-9.8s9.8 4.4 9.8 9.8V434c0 5.6-4.4 9.8-9.8 9.8z" fill="#FFFFFF" p-id="6177"></path><path d="M356.4 424.4h-39c-5.4 0-9.8-4.4-9.8-9.8s4.4-9.8 9.8-9.8h39c5.4 0 9.8 4.4 9.8 9.8-0.2 5.4-4.4 9.8-9.8 9.8z" fill="#FFFFFF" p-id="6178"></path><path d="M726 366c5.4 0 9.8-4.4 9.8-9.8v-39c0-5.4-4.4-9.8-9.8-9.8s-9.8 4.4-9.8 9.8v39c0.2 5.6 4.4 9.8 9.8 9.8z" fill="#FFFFFF" p-id="6179"></path><path d="M706.6 346.6h39c5.4 0 9.8-4.4 9.8-9.8s-4.4-9.8-9.8-9.8h-39c-5.4 0-9.8 4.4-9.8 9.8s4.4 9.8 9.8 9.8z" fill="#FFFFFF" p-id="6180"></path><path d="M687.2 443.8c5.4 0 9.8-4.4 9.8-9.8v-39c0-5.4-4.4-9.8-9.8-9.8s-9.8 4.4-9.8 9.8V434c0 5.6 4.4 9.8 9.8 9.8z" fill="#FFFFFF" p-id="6181"></path><path d="M667.6 424.4h39c5.4 0 9.8-4.4 9.8-9.8s-4.4-9.8-9.8-9.8h-39c-5.4 0-9.8 4.4-9.8 9.8 0.2 5.4 4.4 9.8 9.8 9.8z" fill="#FFFFFF" p-id="6182"></path><path d="M628.8 858.2v-424c0-68.4-49.8-144-116.8-155.6-66.8 11.8-116.8 87.2-116.8 155.6v424c19.4 8.2 35 23.6 43 43h147.4c8.2-19.4 23.8-35 43.2-43z" fill="#FFFFFF" p-id="6183" data-spm-anchor-id="a313x.search_index.0.i3.72543a81bb0J9a" class="selected"></path><path d="M512 278.4c-6.4 1.2-12.4 2.8-18.4 5 57.4 21 98.4 88.8 98.4 150.6v424c-19.4 8.2-35 23.6-43 43h36.8c8.2-19.4 23.6-35 43-43V434c0-68.2-50-143.8-116.8-155.6z" fill="#E6E7E8" p-id="6184"></path><path d="M512.6 278.4c6.4 1.2 12.4 2.8 18.4 5-57.4 21-98.4 88.8-98.4 150.6v424c19.4 8.2 35 23.6 43 43h-36.8c-8.2-19.4-23.6-35-43-43V434c0-68.2 49.8-143.8 116.8-155.6z" fill="#E6E7E8" p-id="6185"></path><path d="M585.8 910.8h-147.4c-4 0-7.4-2.4-9-6-7-17-20.8-30.8-37.8-37.8-3.6-1.6-6-5-6-9V434c0-69.2 50.2-152.2 124.8-165.2 1.2-0.2 2.2-0.2 3.4 0 74.6 13 124.8 96 124.8 165.2v424c0 4-2.4 7.4-6 9-17 7-30.8 20.8-37.8 37.8-1.6 3.8-5.2 6-9 6z m-141.4-19.4h135c8.6-17 22.6-30.8 39.4-39.4V434.2c0-59.6-43.8-133.6-107-145.8-63.2 12.2-107 86.2-107 145.8V852c17 8.6 31 22.6 39.6 39.4z m184.4-33.2z" fill="#402943" p-id="6186"></path><path d="M434.2 711.4h-39c-2.6 0-4.8-2.2-4.8-4.8 0-2.6 2.2-4.8 4.8-4.8h34v-146h-34c-2.6 0-4.8-2.2-4.8-4.8 0-2.6 2.2-4.8 4.8-4.8h39c2.6 0 4.8 2.2 4.8 4.8v155.6c0 2.6-2.2 4.8-4.8 4.8zM628.8 711.4h-39c-2.6 0-4.8-2.2-4.8-4.8v-155.6c0-2.6 2.2-4.8 4.8-4.8h39c2.6 0 4.8 2.2 4.8 4.8 0 2.6-2.2 4.8-4.8 4.8h-34v146h34c2.6 0 4.8 2.2 4.8 4.8 0 2.6-2.2 4.8-4.8 4.8z" fill="#402943" p-id="6187"></path><path d="M395.2 667.6l-155.6 116.8v73.8h155.6z" fill="#FCD64B" p-id="6188"></path><path d="M356.4 696.8l38.8-29.2v190.6h-38.8z" fill="#F5AB33" p-id="6189"></path><path d="M278.4 858.2h-38.8v-73.8l38.8-29.2z" fill="#FFECA6" p-id="6190"></path><path d="M395.2 867.8h-155.6c-5.4 0-9.8-4.4-9.8-9.8v-73.8c0-3 1.4-6 3.8-7.8l155.6-116.8c3-2.2 6.8-2.6 10.2-1 3.2 1.6 5.4 5 5.4 8.8v190.4c0 2.6-1 5-2.8 6.8-1.6 2.2-4.2 3.2-6.8 3.2z m-145.8-19.4h136.2v-161.4l-136.2 102.2v59.2z" fill="#402943" p-id="6191"></path><path d="M628.8 667.6l155.6 116.8v73.8h-155.6z" fill="#FCD64B" p-id="6192"></path><path d="M628.8 667.6l155.6 116.8v73.8h-155.6z" fill="#FCD64B" p-id="6193"></path><path d="M667.6 696.8l-38.8-29.2v190.6h38.8z" fill="#F5AB33" p-id="6194"></path><path d="M745.6 858.2h38.8v-73.8l-39-29.2z" fill="#FFECA6" p-id="6195"></path><path d="M784.4 867.8h-155.6c-2.6 0-5-1-6.8-2.8-1.8-1.8-2.8-4.2-2.8-6.8v-190.4c0-3.6 2-7 5.4-8.8 3.2-1.6 7.2-1.2 10.2 1l155.6 116.8c2.4 1.8 3.8 4.8 3.8 7.8v73.8c0 5.2-4.4 9.4-9.8 9.4z m-146-19.4h136.2v-59.2l-136.2-102.2v161.4z" fill="#402943" p-id="6196"></path><path d="M395.2 828.2h-155.6c-2.6 0-4.8-2.2-4.8-4.8 0-2.6 2.2-4.8 4.8-4.8h155.6c2.6 0 4.8 2.2 4.8 4.8 0.2 2.6-2 4.8-4.8 4.8z" fill="#402943" p-id="6197"></path><path d="M788.4 828.2h-155.6c-2.6 0-4.8-2.2-4.8-4.8 0-2.6 2.2-4.8 4.8-4.8h155.6c2.6 0 4.8 2.2 4.8 4.8 0.2 2.6-2 4.8-4.8 4.8z" fill="#402943" p-id="6198"></path><path d="M628.8 828.2H395.2c-2.6 0-4.8-2.2-4.8-4.8 0-2.6 2.2-4.8 4.8-4.8h233.6c2.6 0 4.8 2.2 4.8 4.8 0 2.6-2.2 4.8-4.8 4.8z" fill="#402943" p-id="6199"></path><path d="M512 434.2m-39 0a39 39 0 1 0 78 0 39 39 0 1 0-78 0Z" fill="#59C3F0" p-id="6200"></path><path d="M512 482.8c-26.8 0-48.6-21.8-48.6-48.6s21.8-48.6 48.6-48.6 48.6 21.8 48.6 48.6-21.8 48.6-48.6 48.6z m0-77.8c-16 0-29.2 13-29.2 29.2s13 29.2 29.2 29.2c16 0 29.2-13 29.2-29.2s-13.2-29.2-29.2-29.2z" fill="#402943" p-id="6201" data-spm-anchor-id="a313x.search_index.0.i4.72543a81bb0J9a" class="selected"></path></svg>